<?xml version="1.0" encoding="UTF-8"?>
<svg version="1.1" xmlns="http://www.w3.org/2000/svg" width="271" height="271">
<path d="M0 0 C-1.26604182 3.79812546 -2.92044838 4.74560293 -6.0625 7.1875 C-9.57044056 9.98211416 -12.88744303 12.77096481 -16 16 C-18.86501595 18.95183462 -21.84734662 21.55855945 -25.0625 24.125 C-30.50588483 28.49183797 -35.57445354 33.1911356 -40.65136719 37.97583008 C-44.40882189 41.5168793 -48.20037692 44.99360008 -52.11328125 48.36328125 C-54.43658787 50.37873772 -56.71748465 52.43848462 -59 54.5 C-61.93678465 57.15113994 -64.88602542 59.78290171 -67.875 62.375 C-71.78250839 65.77831376 -75.59759176 69.27971201 -79.41064453 72.7878418 C-84.24026776 77.22946634 -89.11318554 81.62132775 -94 86 C-90.94319626 88.03786916 -87.96321393 89.43756443 -84.609375 90.93359375 C-83.98653625 91.21219742 -83.36369751 91.49080109 -82.72198486 91.77784729 C-80.73245536 92.66695968 -78.74123403 93.55221267 -76.75 94.4375 C-75.42567451 95.02905796 -74.10145462 95.62085242 -72.77734375 96.21289062 C-66.86908692 98.85087062 -60.95164454 101.46140854 -55 104 C-55.29711914 105.85424805 -55.29711914 105.85424805 -56 108 C-58.45579411 109.76427086 -60.83494921 111.29922565 -63.4375 112.8125 C-64.91663326 113.70232159 -66.39450313 114.59424669 -67.87109375 115.48828125 C-68.58765137 115.91963379 -69.30420898 116.35098633 -70.04248047 116.79541016 C-72.43502744 118.26770085 -74.72284315 119.85560371 -77 121.5 C-81.12598738 124.4510831 -85.37579319 127.14507517 -89.6875 129.8125 C-94.83299057 132.99691974 -99.92098975 136.2410027 -104.9375 139.625 C-111.65791193 144.15445134 -118.47793851 148.52010845 -125.3125 152.875 C-134.95488361 159.02368296 -144.51686376 165.27534895 -154.00488281 171.65917969 C-157.16372966 173.78208557 -160.33225043 175.89041358 -163.5 178 C-164.09296875 178.39574219 -164.6859375 178.79148438 -165.296875 179.19921875 C-168.77895104 181.52309354 -172.26622412 183.83887544 -175.7578125 186.1484375 C-176.97114258 186.9528125 -176.97114258 186.9528125 -178.20898438 187.7734375 C-179.77933297 188.81441232 -181.35088333 189.85357729 -182.92382812 190.890625 C-186.01959376 192.94521385 -188.97177 194.97659165 -191.8359375 197.3515625 C-194 199 -194 199 -197 199 C-196.4261691 195.3505569 -195.05791275 193.71251405 -192.4296875 191.171875 C-191.6975 190.45386719 -190.9653125 189.73585937 -190.2109375 188.99609375 C-189.44007813 188.25488281 -188.66921875 187.51367188 -187.875 186.75 C-181.51149474 180.58494732 -181.51149474 180.58494732 -175.5390625 174.046875 C-170.69491278 168.40209692 -165.32498992 163.28036133 -160.02734375 158.06640625 C-155.73323672 153.81365499 -151.62394931 149.49679419 -147.68847656 144.91113281 C-144.81968565 141.6640398 -141.72028574 138.65428818 -138.625 135.625 C-137.38573581 134.41118271 -136.14864259 133.19514371 -134.9140625 131.9765625 C-134.3773291 131.45143066 -133.8405957 130.92629883 -133.28759766 130.38525391 C-131.88723997 129.0089621 -131.88723997 129.0089621 -131 127 C-130.34 127 -129.68 127 -129 127 C-128.505 125.515 -128.505 125.515 -128 124 C-127.34 124 -126.68 124 -126 124 C-125.61714844 123.12214844 -125.61714844 123.12214844 -125.2265625 122.2265625 C-123.88462586 119.79056287 -122.4012616 118.2678452 -120.375 116.375 C-118.49424248 114.66170213 -118.49424248 114.66170213 -117 113 C-117 112.34 -117 111.68 -117 111 C-117.66306152 110.65855957 -118.32612305 110.31711914 -119.00927734 109.96533203 C-132.79665155 102.85610557 -146.49818768 95.6389564 -160 88 C-158.75194786 84.25584358 -157.80980167 84.07071922 -154.390625 82.28515625 C-152.93378296 81.51268555 -152.93378296 81.51268555 -151.44750977 80.72460938 C-149.86474243 79.90186523 -149.86474243 79.90186523 -148.25 79.0625 C-146.03401243 77.88887592 -143.81918762 76.71305402 -141.60546875 75.53515625 C-140.48962402 74.94234863 -139.3737793 74.34954102 -138.22412109 73.73876953 C-133.61480826 71.25296565 -129.08868401 68.63316013 -124.5625 66 C-115.98974372 61.03863389 -107.25288164 56.45462984 -98.44433594 51.92797852 C-90.33889534 47.74374115 -82.38541525 43.33382367 -74.46459961 38.81152344 C-67.91113153 35.07120456 -61.31877457 31.41302963 -54.6875 27.8125 C-48.13328663 24.25143127 -41.58431749 20.68263028 -35.0625 17.0625 C-34.35883301 16.67320313 -33.65516602 16.28390625 -32.93017578 15.8828125 C-28.55181033 13.45093203 -24.20680686 10.96707225 -19.875 8.453125 C-18.82820068 7.84976318 -17.78140137 7.24640137 -16.70288086 6.62475586 C-14.63882465 5.4336271 -12.57956109 4.23414725 -10.52563477 3.02563477 C-9.59033936 2.48737061 -8.65504395 1.94910645 -7.69140625 1.39453125 C-6.85810791 0.90831299 -6.02480957 0.42209473 -5.16625977 -0.07885742 C-3 -1 -3 -1 0 0 Z " fill="#BE8B7F" transform="translate(252,34)"/>
<path d="M0 0 C-1.26604182 3.79812546 -2.92044838 4.74560293 -6.0625 7.1875 C-9.57044056 9.98211416 -12.88744303 12.77096481 -16 16 C-18.86501595 18.95183462 -21.84734662 21.55855945 -25.0625 24.125 C-30.50588483 28.49183797 -35.57445354 33.1911356 -40.65136719 37.97583008 C-44.40283911 41.51124109 -48.1842766 44.98697796 -52.09765625 48.34375 C-55.36244279 51.18619249 -58.52577526 54.14247679 -61.703125 57.08203125 C-63.75619065 58.7964109 -65.55989475 59.94224795 -68 61 C-67.67 59.68 -67.34 58.36 -67 57 C-66.34 57 -65.68 57 -65 57 C-64.34 55.68 -63.68 54.36 -63 53 C-62.34 53 -61.68 53 -61 53 C-60.67 51.68 -60.34 50.36 -60 49 C-57.03 48.505 -57.03 48.505 -54 48 C-54.495 46.515 -54.495 46.515 -55 45 C-51.40803709 42.04945904 -51.40803709 42.04945904 -48.9375 41.75 C-46.54540985 41.08557737 -46.54540985 41.08557737 -45.4375 37.5 C-44.963125 36.345 -44.48875 35.19 -44 34 C-42.515 33.505 -42.515 33.505 -41 33 C-41 32.01 -41 31.02 -41 30 C-41.99 29.67 -42.98 29.34 -44 29 C-44 26.69 -44 24.38 -44 22 C-42.96746094 21.42894531 -41.93492187 20.85789062 -40.87109375 20.26953125 C-40.17636963 19.88450439 -39.48164551 19.49947754 -38.76586914 19.1027832 C-37.19404179 18.2317433 -35.62159789 17.36181519 -34.04858398 16.49291992 C-29.26753794 13.84376833 -24.51636283 11.15028294 -19.7890625 8.40625 C-18.75467041 7.80965576 -17.72027832 7.21306152 -16.65454102 6.59838867 C-14.60857942 5.41669036 -12.5672946 4.22685404 -10.53100586 3.02856445 C-9.59393799 2.4893335 -8.65687012 1.95010254 -7.69140625 1.39453125 C-6.44145874 0.66520386 -6.44145874 0.66520386 -5.16625977 -0.07885742 C-3 -1 -3 -1 0 0 Z " fill="#BA897E" transform="translate(252,34)"/>
<path d="M0 0 C0.99 0.66 1.98 1.32 3 2 C1.948125 2.7734375 1.948125 2.7734375 0.875 3.5625 C-3.74651414 7.48074025 -7.53754576 11.04932414 -9 17 C-9.66 17.33 -10.32 17.66 -11 18 C-10.99484375 19.02738281 -10.9896875 20.05476563 -10.984375 21.11328125 C-11.31726922 23.9479479 -11.8359356 24.84773028 -13.96289062 26.82177734 C-16.6713111 28.71425248 -19.42791519 30.46913893 -22.25 32.1875 C-24.1521471 33.38757256 -26.05322293 34.58934511 -27.953125 35.79296875 C-28.84193359 36.34645996 -29.73074219 36.89995117 -30.64648438 37.47021484 C-33.17439316 39.05424365 -33.17439316 39.05424365 -35.984375 41.42578125 C-38 43 -38 43 -41 43 C-40.4261691 39.3505569 -39.05791275 37.71251405 -36.4296875 35.171875 C-35.6975 34.45386719 -34.9653125 33.73585937 -34.2109375 32.99609375 C-33.44007812 32.25488281 -32.66921875 31.51367188 -31.875 30.75 C-26.92277515 25.94292657 -22.13220299 21.11252199 -17.63476562 15.875 C-15.13879928 13.0122429 -12.4955063 10.31149526 -9.8125 7.625 C-9.30525391 7.10550781 -8.79800781 6.58601562 -8.27539062 6.05078125 C-5.7048283 3.47021673 -3.41277479 1.35207784 0 0 Z " fill="#B48479" transform="translate(96,190)"/>
<path d="M0 0 C0 0.66 0 1.32 0 2 C-0.69867188 2.32613281 -1.39734375 2.65226562 -2.1171875 2.98828125 C-3.02726562 3.42527344 -3.93734375 3.86226563 -4.875 4.3125 C-5.77992188 4.74175781 -6.68484375 5.17101562 -7.6171875 5.61328125 C-10.26449476 6.9199388 -10.26449476 6.9199388 -12 10 C-12.66 10 -13.32 10 -14 10 C-14 10.66 -14 11.32 -14 12 C-14.55429688 12.25394531 -15.10859375 12.50789063 -15.6796875 12.76953125 C-16.40414062 13.11371094 -17.12859375 13.45789063 -17.875 13.8125 C-18.59429687 14.14894531 -19.31359375 14.48539063 -20.0546875 14.83203125 C-22.30542806 15.99467097 -22.30542806 15.99467097 -24 19 C-25.8828125 19.484375 -25.8828125 19.484375 -28.125 19.75 C-33.1268733 20.6718196 -35.50299361 22.99553175 -39.08203125 26.453125 C-41.86620529 28.69860956 -44.50486116 28.7944036 -48 29 C-48.99 29.66 -49.98 30.32 -51 31 C-51 30.34 -51 29.68 -51 29 C-51.66 28.67 -52.32 28.34 -53 28 C-3.32360263 0 -3.32360263 0 0 0 Z " fill="#BFA198" transform="translate(159,84)"/>
<path d="M0 0 C0 3 0 3 -1.37353516 4.69824219 C-2.00565918 5.30829102 -2.6377832 5.91833984 -3.2890625 6.546875 C-3.98386719 7.2275 -4.67867187 7.908125 -5.39453125 8.609375 C-6.49861328 9.66898438 -6.49861328 9.66898438 -7.625 10.75 C-12.68220943 15.65174368 -17.49995278 20.57723017 -22 26 C-21.01 25.67 -20.02 25.34 -19 25 C-18.01 25.99 -17.02 26.98 -16 28 C-16.96421875 28.68707031 -17.9284375 29.37414062 -18.921875 30.08203125 C-20.19793477 30.99216212 -21.47397543 31.90231978 -22.75 32.8125 C-23.38421875 33.26431641 -24.0184375 33.71613281 -24.671875 34.18164062 C-25.6 34.84389648 -25.6 34.84389648 -26.546875 35.51953125 C-27.14822266 35.9470166 -27.74957031 36.37450195 -28.36914062 36.81494141 C-29.69673779 37.77963551 -30.98738703 38.7950168 -32.265625 39.82421875 C-34 41 -34 41 -37 41 C-36.4261691 37.3505569 -35.05791275 35.71251405 -32.4296875 33.171875 C-31.6975 32.45386719 -30.9653125 31.73585937 -30.2109375 30.99609375 C-29.44007812 30.25488281 -28.66921875 29.51367188 -27.875 28.75 C-22.92635067 23.94639729 -18.14471549 19.1188513 -13.65234375 13.88378906 C-11.08547012 10.95737108 -8.33639355 8.22864811 -5.5625 5.5 C-4.75135742 4.695625 -4.75135742 4.695625 -3.92382812 3.875 C-2.61823383 2.58095964 -1.30947004 1.29011826 0 0 Z " fill="#C9B2AA" transform="translate(92,192)"/>
<path d="M0 0 C-0.66 0 -1.32 0 -2 0 C-2 0.66 -2 1.32 -2 2 C-2.639375 2.103125 -3.27875 2.20625 -3.9375 2.3125 C-4.618125 2.539375 -5.29875 2.76625 -6 3 C-6.33 3.99 -6.66 4.98 -7 6 C-7.66 6 -8.32 6 -9 6 C-9 6.66 -9 7.32 -9 8 C-10.7634375 8.061875 -10.7634375 8.061875 -12.5625 8.125 C-17.09161334 8.64789941 -19.37675075 10.58167225 -22.5546875 13.72265625 C-24 15 -24 15 -26 15 C-26.33 14.34 -26.66 13.68 -27 13 C-27.66 13.66 -28.32 14.32 -29 15 C-30.32392972 16.01241685 -31.65599167 17.01439389 -33 18 C-33 17.34 -33 16.68 -33 16 C-33.66 15.67 -34.32 15.34 -35 15 C-34.2886792 14.61666504 -33.5773584 14.23333008 -32.84448242 13.83837891 C-29.62466724 12.1021035 -26.40607187 10.36357899 -23.1875 8.625 C-21.50817383 7.72007813 -21.50817383 7.72007813 -19.79492188 6.796875 C-18.72177734 6.21679688 -17.64863281 5.63671875 -16.54296875 5.0390625 C-15.55321045 4.50490723 -14.56345215 3.97075195 -13.54370117 3.42041016 C-10.87935012 1.97636924 -10.87935012 1.97636924 -8 0 C-4.66657937 -0.91669067 -3.34350146 -1.11450049 0 0 Z " fill="#AD867C" transform="translate(205,62)"/>
<path d="M0 0 C0.66 0.33 1.32 0.66 2 1 C1.6244757 3.43784049 1.36123632 4.68121083 -0.51879883 6.34033203 C-1.15841553 6.72560059 -1.79803223 7.11086914 -2.45703125 7.5078125 C-3.15763672 7.93707031 -3.85824219 8.36632812 -4.58007812 8.80859375 C-5.31677734 9.24300781 -6.05347656 9.67742187 -6.8125 10.125 C-7.53759766 10.56714844 -8.26269531 11.00929687 -9.00976562 11.46484375 C-12.28413697 13.4480403 -15.55936209 15.31812259 -19 17 C-18.34 15.35 -17.68 13.7 -17 12 C-16.34 12 -15.68 12 -15 12 C-15 11.34 -15 10.68 -15 10 C-13.35 9.34 -11.7 8.68 -10 8 C-10.061875 7.071875 -10.12375 6.14375 -10.1875 5.1875 C-10 2 -10 2 -8.9375 0.0625 C-5.84685864 -1.63236784 -3.33659816 -0.72798505 0 0 Z " fill="#B3887D" transform="translate(195,137)"/>
<path d="M0 0 C-1.26604182 3.79812546 -2.92044838 4.74560293 -6.0625 7.1875 C-11.05886814 11.16633102 -15.60167559 15.37482791 -20 20 C-20.66 19.67 -21.32 19.34 -22 19 C-21.50628906 18.52949219 -21.01257813 18.05898438 -20.50390625 17.57421875 C-19.86324219 16.95160156 -19.22257813 16.32898438 -18.5625 15.6875 C-17.60537109 14.76517578 -17.60537109 14.76517578 -16.62890625 13.82421875 C-14.7778582 11.99355944 -14.7778582 11.99355944 -14 9 C-18.95 10.485 -18.95 10.485 -24 12 C-20.35721876 8.35721876 -16.47231988 6.23931012 -12 3.75 C-11.18015625 3.27820312 -10.3603125 2.80640625 -9.515625 2.3203125 C-8.72671875 1.87945312 -7.9378125 1.43859375 -7.125 0.984375 C-6.40570313 0.57928711 -5.68640625 0.17419922 -4.9453125 -0.24316406 C-3 -1 -3 -1 0 0 Z " fill="#CBBCB4" transform="translate(252,34)"/>
<path d="M0 0 C1.67542976 0.28604898 3.34385343 0.61781233 5 1 C-0.09613644 7.3357372 -5.91962593 12.61921442 -12 18 C-12.763125 18.68964844 -13.52625 19.37929687 -14.3125 20.08984375 C-17.70642177 23.130232 -20.94827351 25.8475203 -25 28 C-24.67 26.68 -24.34 25.36 -24 24 C-23.34 24 -22.68 24 -22 24 C-21.34 22.68 -20.68 21.36 -20 20 C-19.34 20 -18.68 20 -18 20 C-17.67 18.68 -17.34 17.36 -17 16 C-15.02 15.67 -13.04 15.34 -11 15 C-11.33 14.01 -11.66 13.02 -12 12 C-8.40803709 9.04945904 -8.40803709 9.04945904 -5.9375 8.75 C-3.54645658 8.07812762 -3.54645658 8.07812762 -2.3125 4.5 C-1.879375 3.345 -1.44625 2.19 -1 1 C-0.67 0.67 -0.34 0.34 0 0 Z " fill="#C6A8A0" transform="translate(209,67)"/>
<path d="M0 0 C-0.58218193 3.50861642 -1.81713692 5.24929353 -4.3125 7.75 C-5.20388672 8.67039062 -5.20388672 8.67039062 -6.11328125 9.609375 C-8 11 -8 11 -12 11 C-12 11.99 -12 12.98 -12 14 C-12.66 14 -13.32 14 -14 14 C-14 12.35 -14 10.7 -14 9 C-15.98 9.66 -17.96 10.32 -20 11 C-19 8 -19 8 -16.125 6.3125 C-13 5 -13 5 -10 5 C-10 4.34 -10 3.68 -10 3 C-6.27034861 0.96564469 -4.33094958 0 0 0 Z " fill="#AA857C" transform="translate(238,43)"/>
<path d="M0 0 C4.455 0.99 4.455 0.99 9 2 C-1.66666667 11 -1.66666667 11 -7 11 C-6.39285714 5.53571429 -6.39285714 5.53571429 -4.625 3.125 C-3 2 -3 2 0 2 C0 1.34 0 0.68 0 0 Z " fill="#B58D84" transform="translate(167,152)"/>
<path d="M0 0 C1.32 0.66 2.64 1.32 4 2 C-0.79077028 6.9255107 -5.77674023 11.53648711 -11 16 C-10.01 16.66 -9.02 17.32 -8 18 C-6.66209359 18.99387334 -5.32781878 19.9926892 -4 21 C-7.55780196 20.39009109 -10.6828589 19.4216319 -14 18 C-14 16.68 -14 15.36 -14 14 C-13.01 14 -12.02 14 -11 14 C-10.896875 13.360625 -10.79375 12.72125 -10.6875 12.0625 C-10.460625 11.381875 -10.23375 10.70125 -10 10 C-9.01 9.67 -8.02 9.34 -7 9 C-7 8.34 -7 7.68 -7 7 C-6.34 7 -5.68 7 -5 7 C-4.67 6.01 -4.34 5.02 -4 4 C-2.70644173 2.62804426 -1.37701298 1.28817344 0 0 Z " fill="#BFA097" transform="translate(169,104)"/>
<path d="M0 0 C0.99 0.66 1.98 1.32 3 2 C2.29875 2.515625 1.5975 3.03125 0.875 3.5625 C-3.74651414 7.48074025 -7.53754576 11.04932414 -9 17 C-11.70879335 18.35439668 -14.00933268 18.06501451 -17 18 C-12.88181332 13.0782647 -8.58580751 8.48587465 -4 4 C-3.195625 3.195625 -2.39125 2.39125 -1.5625 1.5625 C-1.046875 1.046875 -0.53125 0.53125 0 0 Z " fill="#AC867B" transform="translate(96,190)"/>
<path d="M0 0 C0 0.66 0 1.32 0 2 C-0.99 2.66 -1.98 3.32 -3 4 C-2.04134491 6.33075929 -2.04134491 6.33075929 1 8 C1 8.66 1 9.32 1 10 C1.99 9.67 2.98 9.34 4 9 C4 9.66 4 10.32 4 11 C4.78375 11.0825 5.5675 11.165 6.375 11.25 C9 12 9 12 10.3125 14.0625 C10.539375 14.701875 10.76625 15.34125 11 16 C6.50675151 14.34229667 2.38813854 12.15017838 -1.8125 9.875 C-2.50537109 9.50246094 -3.19824219 9.12992188 -3.91210938 8.74609375 C-5.60934836 7.83309623 -7.30485138 6.91687284 -9 6 C-8 3 -8 3 -5.0625 1.3125 C-2 0 -2 0 0 0 Z " fill="#BA9F99" transform="translate(101,116)"/>
<path d="M0 0 C2.18408203 0.35083008 2.18408203 0.35083008 4 1 C3.21654285 2.17219543 2.42297164 3.33763668 1.625 4.5 C1.18414062 5.1496875 0.74328125 5.799375 0.2890625 6.46875 C-0.13632813 6.9740625 -0.56171875 7.479375 -1 8 C-1.66 8 -2.32 8 -3 8 C-3 8.66 -3 9.32 -3 10 C-3.70125 10.061875 -4.4025 10.12375 -5.125 10.1875 C-9.0332733 11.29201202 -11.00357248 13.28230992 -14 16 C-12.32357676 11.74685214 -9.2824091 8.87898186 -6.125 5.6875 C-5.59519531 5.12482422 -5.06539062 4.56214844 -4.51953125 3.98242188 C-2.9453125 2.38671875 -2.9453125 2.38671875 0 0 Z " fill="#B0837B" transform="translate(120,165)"/>
<path d="M0 0 C0 0.66 0 1.32 0 2 C-0.99 2.33 -1.98 2.66 -3 3 C-3.45375 3.804375 -3.9075 4.60875 -4.375 5.4375 C-6.2836851 8.44734958 -7.64965669 9.00395199 -11 10 C-11.33 9.34 -11.66 8.68 -12 8 C-12.66 8.66 -13.32 9.32 -14 10 C-15.32392972 11.01241685 -16.65599167 12.01439389 -18 13 C-18 12.34 -18 11.68 -18 11 C-18.66 10.67 -19.32 10.34 -20 10 C-17.04550087 8.3264663 -14.0857982 6.66236015 -11.125 5 C-10.28324219 4.52304688 -9.44148437 4.04609375 -8.57421875 3.5546875 C-7.76855469 3.10351562 -6.96289062 2.65234375 -6.1328125 2.1875 C-5.38918457 1.76855469 -4.64555664 1.34960938 -3.87939453 0.91796875 C-2 0 -2 0 0 0 Z " fill="#C6A7A0" transform="translate(190,67)"/>
<path d="M0 0 C0 0.66 0 1.32 0 2 C-0.63808594 2.26554687 -1.27617187 2.53109375 -1.93359375 2.8046875 C-2.75988281 3.15789063 -3.58617187 3.51109375 -4.4375 3.875 C-5.67306641 4.39707031 -5.67306641 4.39707031 -6.93359375 4.9296875 C-9.15746715 5.8244937 -9.15746715 5.8244937 -10 8 C-9.21625 7.484375 -8.4325 6.96875 -7.625 6.4375 C-6.75875 5.963125 -5.8925 5.48875 -5 5 C-4.34 5.33 -3.68 5.66 -3 6 C-3 6.99 -3 7.98 -3 9 C-3.89203125 9.06058594 -4.7840625 9.12117188 -5.703125 9.18359375 C-7.45882812 9.30927734 -7.45882812 9.30927734 -9.25 9.4375 C-10.41015625 9.51871094 -11.5703125 9.59992187 -12.765625 9.68359375 C-15.30977376 9.93247787 -17.55953248 10.28114942 -20 11 C-17.9861609 8.84261682 -16.09796497 7.34234338 -13.49609375 5.95703125 C-12.50899414 5.43012695 -12.50899414 5.43012695 -11.50195312 4.89257812 C-10.82068359 4.53615234 -10.13941406 4.17972656 -9.4375 3.8125 C-8.75236328 3.44447266 -8.06722656 3.07644531 -7.36132812 2.69726562 C-2.26204487 0 -2.26204487 0 0 0 Z " fill="#D4B9B0" transform="translate(228,46)"/>
<path d="M0 0 C-1.11666174 3.34998521 -1.74694925 3.79340222 -4.5625 5.6875 C-5.20316406 6.12449219 -5.84382812 6.56148437 -6.50390625 7.01171875 C-6.99761719 7.33785156 -7.49132812 7.66398437 -8 8 C-8 7.01 -8 6.02 -8 5 C-8.99 5.66 -9.98 6.32 -11 7 C-13.1875 6.625 -13.1875 6.625 -15 6 C-13.07010782 4.80017556 -11.13080772 3.61547182 -9.1875 2.4375 C-8.10855469 1.77621094 -7.02960938 1.11492188 -5.91796875 0.43359375 C-3 -1 -3 -1 0 0 Z " fill="#DCD4CC" transform="translate(252,34)"/>
<path d="M0 0 C1.32 0.33 2.64 0.66 4 1 C-2.435 6.94 -2.435 6.94 -9 13 C-9 9.33815476 -8.080358 7.97194 -6 5 C-3.8125 3.1875 -3.8125 3.1875 -2 2 C-1.34 2.33 -0.68 2.66 0 3 C0 2.01 0 1.02 0 0 Z " fill="#CFB5AD" transform="translate(226,54)"/>
<path d="M0 0 C1.43088528 2.86177057 0.59991697 4.93375773 0 8 C-0.66 8 -1.32 8 -2 8 C-2 8.99 -2 9.98 -2 11 C-2.598125 10.835 -3.19625 10.67 -3.8125 10.5 C-6.11344336 9.8885876 -6.11344336 9.8885876 -9 10 C-6.03 6.7 -3.06 3.4 0 0 Z " fill="#AA857C" transform="translate(78,208)"/>
<path d="M0 0 C-5.445 3.96 -5.445 3.96 -11 8 C-11.66 7.67 -12.32 7.34 -13 7 C-12.34 5.68 -11.68 4.36 -11 3 C-10.34 3 -9.68 3 -9 3 C-9 2.34 -9 1.68 -9 1 C-5.19495213 -0.79682816 -4.29399165 -1.07349791 0 0 Z " fill="#BC9D94" transform="translate(189,146)"/>
<path d="M0 0 C0.66 0 1.32 0 2 0 C1.40072174 3.35595828 0.15377564 5.37801226 -2 8 C1.465 9.485 1.465 9.485 5 11 C0.82412255 12.39195915 -1.13474776 10.82323219 -5 9 C-5 7.68 -5 6.36 -5 5 C-4.01 5 -3.02 5 -2 5 C-1.7834375 4.0409375 -1.7834375 4.0409375 -1.5625 3.0625 C-1 1 -1 1 0 0 Z " fill="#D1B5AC" transform="translate(160,113)"/>
<path d="M0 0 C0 3 0 3 -2 5.1875 C-2.66 5.785625 -3.32 6.38375 -4 7 C-3.34 7.66 -2.68 8.32 -2 9 C-5.625 12 -5.625 12 -9 12 C-8.45015228 8.12488273 -6.72444669 6.40423494 -3.9375 3.75 C-3.20402344 3.04359375 -2.47054687 2.3371875 -1.71484375 1.609375 C-1.14894531 1.07828125 -0.58304688 0.5471875 0 0 Z " fill="#DCD3C9" transform="translate(64,221)"/>
<path d="M0 0 C4.75 0.875 4.75 0.875 7 2 C6.8125 3.875 6.8125 3.875 6 6 C3.4375 7.25 3.4375 7.25 1 8 C0.67 5.36 0.34 2.72 0 0 Z " fill="#B39E96" transform="translate(190,136)"/>
<path d="M0 0 C0.99 0.66 1.98 1.32 3 2 C-0.63 4.31 -4.26 6.62 -8 9 C-8.33 8.01 -8.66 7.02 -9 6 C-7.35 5.67 -5.7 5.34 -4 5 C-4 4.01 -4 3.02 -4 2 C-2.68 1.34 -1.36 0.68 0 0 Z " fill="#BDA096" transform="translate(145,171)"/>
<path d="M0 0 C0 4.00503984 -1.52994022 6.9301813 -4 10 C-6.75 10.9375 -6.75 10.9375 -9 11 C-7.59155282 7.78475695 -5.89655214 5.67816132 -3.375 3.25 C-2.74335938 2.63640625 -2.11171875 2.0228125 -1.4609375 1.390625 C-0.73777344 0.70226562 -0.73777344 0.70226562 0 0 Z " fill="#AB8279" transform="translate(136,148)"/>
<path d="M0 0 C0.66 0 1.32 0 2 0 C2 0.66 2 1.32 2 2 C2.66 2.33 3.32 2.66 4 3 C2.4840625 3.37125 2.4840625 3.37125 0.9375 3.75 C-1.93578396 4.5500811 -4.26503905 5.64082728 -6.8125 7.1875 C-8.3903125 8.0846875 -8.3903125 8.0846875 -10 9 C-10.66 8.67 -11.32 8.34 -12 8 C-10.56839732 6.99157547 -9.12948547 5.99352109 -7.6875 5 C-6.88699219 4.443125 -6.08648437 3.88625 -5.26171875 3.3125 C-3 2 -3 2 0 2 C0 1.34 0 0.68 0 0 Z " fill="#A68478" transform="translate(159,84)"/>
<path d="M0 0 C0.66 1.65 1.32 3.3 2 5 C1 6 1 6 -1.5625 6.0625 C-2.7690625 6.0315625 -2.7690625 6.0315625 -4 6 C-3.34 4.68 -2.68 3.36 -2 2 C-3.65 2.33 -5.3 2.66 -7 3 C-4.49955934 -0.00052879 -4.2621484 0 0 0 Z " fill="#C0988D" transform="translate(108,113)"/>
<path d="M0 0 C0.350625 0.474375 0.70125 0.94875 1.0625 1.4375 C3.84163543 3.67873825 6.5144717 3.67117658 10 4 C10 5.32 10 6.64 10 8 C5.1725201 6.58707905 1.2837641 4.57025846 -3 2 C-2.01 1.34 -1.02 0.68 0 0 Z " fill="#C5A89F" transform="translate(115,131)"/>
<path d="M0 0 C0 0.66 0 1.32 0 2 C-0.99 2 -1.98 2 -3 2 C-3 2.99 -3 3.98 -3 5 C-4.98 5.99 -6.96 6.98 -9 8 C-9 7.34 -9 6.68 -9 6 C-9.66 5.67 -10.32 5.34 -11 5 C-9.54462432 4.16151196 -8.08559627 3.32936066 -6.625 2.5 C-5.81289062 2.0359375 -5.00078125 1.571875 -4.1640625 1.09375 C-2 0 -2 0 0 0 Z " fill="#C5ACA6" transform="translate(117,107)"/>
<path d="M0 0 C2.31 0.66 4.62 1.32 7 2 C4.47211993 4.79872437 2.79588866 6.45773019 -1 7 C-1 6.01 -1 5.02 -1 4 C-0.34 4 0.32 4 1 4 C0.67 2.68 0.34 1.36 0 0 Z " fill="#BB9D93" transform="translate(77,212)"/>
<path d="M0 0 C0.99 0 1.98 0 3 0 C2.6875 1.9375 2.6875 1.9375 2 4 C1.01 4.33 0.02 4.66 -1 5 C-1 5.66 -1 6.32 -1 7 C-2.65 7 -4.3 7 -6 7 C-5.67 6.34 -5.34 5.68 -5 5 C-4.34 5 -3.68 5 -3 5 C-2.5359375 4.0409375 -2.5359375 4.0409375 -2.0625 3.0625 C-1 1 -1 1 0 0 Z " fill="#B2877D" transform="translate(156,161)"/>
<path d="M0 0 C1.65 0.33 3.3 0.66 5 1 C3.35 2.98 1.7 4.96 0 7 C-0.33 6.34 -0.66 5.68 -1 5 C-1.66 4.67 -2.32 4.34 -3 4 C-2.01 2.68 -1.02 1.36 0 0 Z " fill="#C19F96" transform="translate(209,67)"/>
<path d="M0 0 C-1.98 0.99 -1.98 0.99 -4 2 C-4 3.32 -4 4.64 -4 6 C-4.99 6 -5.98 6 -7 6 C-7.33 4.35 -7.66 2.7 -8 1 C-4.93251126 -0.86240388 -3.40254489 -1.2151946 0 0 Z " fill="#AD867B" transform="translate(216,56)"/>
<path d="M0 0 C2.31 0.66 4.62 1.32 7 2 C5.68 2.33 4.36 2.66 3 3 C3.33 3.66 3.66 4.32 4 5 C3.01 5.33 2.02 5.66 1 6 C0.01 5.01 -0.98 4.02 -2 3 C-1.34 2.67 -0.68 2.34 0 2 C0 1.34 0 0.68 0 0 Z " fill="#C6A19A" transform="translate(174,129)"/>
<path d="M0 0 C0 0.99 0 1.98 0 3 C-0.66 3 -1.32 3 -2 3 C-2 3.66 -2 4.32 -2 5 C-4.31 5 -6.62 5 -9 5 C-2.87096774 0 -2.87096774 0 0 0 Z " fill="#C5A9A3" transform="translate(199,62)"/>
<path d="M0 0 C-0.33 1.32 -0.66 2.64 -1 4 C-2.65 4 -4.3 4 -6 4 C-6.33 4.66 -6.66 5.32 -7 6 C-7.66 5.34 -8.32 4.68 -9 4 C-2.25 0 -2.25 0 0 0 Z " fill="#CDB6AB" transform="translate(208,57)"/>
<path d="M0 0 C2.13093906 1.06546953 3.36587557 2.29159719 5 4 C3.02 4.99 1.04 5.98 -1 7 C-1.04254356 5.00045254 -1.04080783 2.99958364 -1 1 C-0.67 0.67 -0.34 0.34 0 0 Z " fill="#BD958C" transform="translate(85,207)"/>
<path d="M0 0 C0 0.66 0 1.32 0 2 C-3.6678852 3.96189209 -6.87248551 5.39301257 -11 6 C-8.24029211 2.78034079 -4.3526723 0 0 0 Z " fill="#E4D1CD" transform="translate(144,92)"/>
<path d="M0 0 C-5.75 4 -5.75 4 -8 4 C-7.6875 2.0625 -7.6875 2.0625 -7 0 C-3.86650268 -1.04449911 -3.01031744 -0.93423645 0 0 Z " fill="#BAA49B" transform="translate(173,157)"/>
<path d="M0 0 C-1.75 2.0625 -1.75 2.0625 -4 4 C-6.25 3.75 -6.25 3.75 -8 3 C-5.53387212 -0.1151089 -3.89156016 -0.31553191 0 0 Z " fill="#AD9F98" transform="translate(67,225)"/>
<path d="M0 0 C0.99 0.33 1.98 0.66 3 1 C3 2.32 3 3.64 3 5 C1.35 5 -0.3 5 -2 5 C-1.34 3.35 -0.68 1.7 0 0 Z " fill="#AD8B81" transform="translate(119,185)"/>
</svg>
