<?xml version="1.0" encoding="UTF-8"?>
<svg version="1.1" xmlns="http://www.w3.org/2000/svg" width="271" height="363">
<path d="M0 0 C1 2 1 2 0.30332947 4.64659119 C-0.27619728 6.3373452 -0.27619728 6.3373452 -0.86743164 8.06225586 C-1.07915229 8.68681356 -1.29087294 9.31137127 -1.50900936 9.95485497 C-2.21908321 12.04396758 -2.93969702 14.12929217 -3.66015625 16.21484375 C-4.16250638 17.68710616 -4.66412022 19.15961999 -5.16503906 20.63237 C-6.2337516 23.77049547 -7.30679835 26.90709029 -8.3833313 30.0425415 C-10.90034736 37.37470627 -13.3950329 44.71447451 -15.89077568 52.05390167 C-16.44368984 53.67955952 -16.99687911 55.30512383 -17.55034065 56.9305954 C-23.4653324 74.30258094 -29.17286322 91.73796182 -34.79530334 109.20661926 C-37.79236952 118.49453118 -40.89866922 127.74649262 -44 137 C-42.98566391 136.71356377 -42.98566391 136.71356377 -41.95083618 136.42134094 C-21.0155988 130.53023924 0.02566203 125.11751926 21.11724854 119.81787109 C27.80309867 118.13725532 34.48751253 116.45093642 41.17191696 114.76458168 C43.46853938 114.18574332 45.76555715 113.60849785 48.06265259 113.03153992 C49.48402785 112.67377102 50.90536496 112.31585053 52.32666016 111.95776367 C52.99763041 111.78907367 53.66860065 111.62038366 54.35990334 111.44658184 C59.19381614 110.22392371 63.99514142 108.90532908 68.78182983 107.50971985 C71 107 71 107 75 107 C73.33700586 111.86473573 70.64597847 115.90059874 67.875 120.1875 C62.85918107 128.03626335 57.9344286 135.93612366 53.0625 143.875 C51.69274803 146.10549313 50.32295659 148.33596202 48.953125 150.56640625 C48.28732422 151.65066895 47.62152344 152.73493164 46.93554688 153.85205078 C44.07068885 158.51142003 41.19301923 163.16280145 38.3125 167.8125 C37.78503174 168.66432861 37.25756348 169.51615723 36.71411133 170.39379883 C34.11340393 174.59266155 31.50968796 178.78963036 28.90234375 182.984375 C22.33641048 193.55674443 15.84762251 204.17392619 9.39859009 214.81784058 C3.75877202 224.1244726 -1.93639891 233.39503432 -7.67578125 242.640625 C-19.85506602 262.25260528 -19.85506602 262.25260528 -31.8125 282 C-34.73001453 286.8775436 -34.73001453 286.8775436 -36 289 C-36.4630957 289.7744043 -36.92619141 290.54880859 -37.40332031 291.34667969 C-38.90937865 293.85937302 -40.42274231 296.36754339 -41.9375 298.875 C-42.64773315 300.06416016 -42.64773315 300.06416016 -43.37231445 301.27734375 C-43.81534912 302.00824219 -44.25838379 302.73914063 -44.71484375 303.4921875 C-45.10792725 304.14558105 -45.50101074 304.79897461 -45.90600586 305.47216797 C-47 307 -47 307 -49 308 C-46.63402863 299.6587307 -43.7973308 291.48515219 -40.9621582 283.29541016 C-35.98730971 268.91201908 -31.16770006 254.4858429 -26.5 240 C-20.90431012 222.63986107 -15.0725444 205.36729908 -9.1033783 188.13214111 C-7.02036103 182.104307 -5.00983012 176.05256917 -3 170 C-3.73279175 170.18632996 -4.4655835 170.37265991 -5.22058105 170.56463623 C-26.81096911 176.05395059 -48.40373667 181.53384345 -70 187 C-70.67397827 187.17060188 -71.34795654 187.34120377 -72.0423584 187.5169754 C-79.66206949 189.44550171 -87.28288753 191.3695299 -94.90600586 193.2845459 C-96.96442118 193.80211399 -99.02252867 194.32090791 -101.08032227 194.84094238 C-103.9068717 195.55492188 -106.73450116 196.2644431 -109.5625 196.97265625 C-110.38431763 197.18118729 -111.20613525 197.38971832 -112.05285645 197.60456848 C-115.10915806 198.36561527 -117.83713765 199 -121 199 C-119.76737607 194.93034338 -118.30298927 191.55249981 -116.015625 187.97265625 C-115.1181958 186.55496948 -115.1181958 186.55496948 -114.20263672 185.10864258 C-113.5582666 184.10341553 -112.91389648 183.09818848 -112.25 182.0625 C-110.88161631 179.90179875 -109.51445802 177.74032104 -108.1484375 175.578125 C-107.45459961 174.48177734 -106.76076172 173.38542969 -106.04589844 172.25585938 C-102.93597838 167.30670736 -99.90230219 162.31247279 -96.875 157.3125 C-91.34557047 148.19432556 -85.75710819 139.11460954 -80.1328125 130.0546875 C-76.40476845 124.04698673 -72.70334533 118.02294489 -69 112 C-67.76050655 109.98562177 -66.52092509 107.9712977 -65.28125 105.95703125 C-63.32947951 102.78546825 -61.37778069 99.61386125 -59.42626953 96.44213867 C-55.91873386 90.74160077 -52.4099947 85.0418121 -48.8984375 79.34375 C-42.50975352 68.97440663 -36.13606454 58.59670697 -29.8125 48.1875 C-21.45593099 34.43469702 -13.07442593 20.69081751 -4.3671875 7.15625 C-2.86986226 4.79475419 -1.42985679 2.40283626 0 0 Z " fill="#BE897E" transform="translate(172,33)"/>
<path d="M0 0 C1 2 1 2 0.10375977 5.25634766 C-0.35933588 6.64484072 -0.83070996 8.03058946 -1.30859375 9.4140625 C-1.55416519 10.14370209 -1.79973663 10.87334167 -2.05274963 11.62509155 C-2.84067652 13.9608274 -3.6389494 16.29287743 -4.4375 18.625 C-4.97268902 20.20549778 -5.50720304 21.7862243 -6.04101562 23.3671875 C-7.35285183 27.24749181 -8.67397899 31.12452131 -10 35 C-11.32 34.34 -12.64 33.68 -14 33 C-13 30 -13 30 -11 28 C-11.99 27.67 -12.98 27.34 -14 27 C-14.268125 27.969375 -14.53625 28.93875 -14.8125 29.9375 C-15.204375 30.948125 -15.59625 31.95875 -16 33 C-17.485 33.495 -17.485 33.495 -19 34 C-19.35729936 35.32711192 -19.68325425 36.66262906 -20 38 C-21.24324939 40.39402569 -22.6175929 42.68112358 -24 45 C-24.99 44.67 -25.98 44.34 -27 44 C-19.99687359 32.20614965 -12.86270763 20.51193136 -5.49609375 8.94140625 C-3.6169381 5.98785015 -1.78007659 3.01474251 0 0 Z " fill="#B38881" transform="translate(172,33)"/>
<path d="M0 0 C0.66 0.33 1.32 0.66 2 1 C1.67 1.66 1.34 2.32 1 3 C0.34 3 -0.32 3 -1 3 C-1.12375 3.70125 -1.2475 4.4025 -1.375 5.125 C-3.71595401 15.89338846 -9.77240293 25.0561106 -16 34 C-17 32 -17 32 -16.28735352 29.38623047 C-15.90506592 28.30744629 -15.52277832 27.22866211 -15.12890625 26.1171875 C-14.51499023 24.36728516 -14.51499023 24.36728516 -13.88867188 22.58203125 C-13.45103516 21.35871094 -13.01339844 20.13539063 -12.5625 18.875 C-12.12873047 17.64394531 -11.69496094 16.41289062 -11.24804688 15.14453125 C-10.17205477 12.09391626 -9.08910366 9.04595357 -8 6 C-7.67 6.66 -7.34 7.32 -7 8 C-4.12579877 5.28395285 -4.12579877 5.28395285 -2 2 C-1.34 2 -0.68 2 0 2 C0 1.34 0 0.68 0 0 Z " fill="#BB8F86" transform="translate(140,307)"/>
<path d="M0 0 C1 2 1 2 0.37915039 4.43017578 C0.03875732 5.4251709 -0.30163574 6.42016602 -0.65234375 7.4453125 C-1.01650391 8.52167969 -1.38066406 9.59804688 -1.75585938 10.70703125 C-2.14580078 11.83496094 -2.53574219 12.96289062 -2.9375 14.125 C-3.32357422 15.26066406 -3.70964844 16.39632812 -4.10742188 17.56640625 C-5.06497179 20.37994797 -6.02942729 23.19092948 -7 26 C-9 25 -9 25 -10.35546875 21.8515625 C-11.18001018 16.92430282 -10.09134449 15.43899944 -7.3125 11.375 C-6.58675781 10.28960937 -5.86101562 9.20421875 -5.11328125 8.0859375 C-4.41589844 7.06757812 -3.71851563 6.04921875 -3 5 C-1.98720693 3.34107626 -0.98206177 1.67729915 0 0 Z " fill="#B78D86" transform="translate(172,33)"/>
<path d="M0 0 C0.58203125 1.84765625 0.58203125 1.84765625 1 4 C-0.3125 6.4375 -0.3125 6.4375 -2 9 C-2.69822617 10.65369357 -3.37498605 12.31727014 -4 14 C-4.66 14 -5.32 14 -6 14 C-6.2475 14.70125 -6.495 15.4025 -6.75 16.125 C-8.16088026 19.37002459 -9.97895398 22.10316737 -12 25 C-12.69140625 23.3203125 -12.69140625 23.3203125 -13 21 C-11.77734375 18.5546875 -11.77734375 18.5546875 -9.9375 15.875 C-7.38513433 12.06695243 -4.90577454 8.25346172 -2.5625 4.3125 C-2.06878906 3.48363281 -1.57507813 2.65476563 -1.06640625 1.80078125 C-0.71449219 1.20652344 -0.36257812 0.61226562 0 0 Z " fill="#AF8A80" transform="translate(109,135)"/>
<path d="M0 0 C1.32 1.65 2.64 3.3 4 5 C2.7143824 7.14967221 1.42192095 9.29466349 0.125 11.4375 C-0.23980469 12.04916016 -0.60460937 12.66082031 -0.98046875 13.29101562 C-3.7734375 17.88671875 -3.7734375 17.88671875 -6 19 C-4.12275039 12.62267685 -2.14328358 6.29304541 0 0 Z " fill="#B09187" transform="translate(129,322)"/>
<path d="M0 0 C0 3.25992156 -0.44007045 4.08147696 -2.1171875 6.7578125 C-2.55933594 7.46550781 -3.00148437 8.17320312 -3.45703125 8.90234375 C-3.92496094 9.63582031 -4.39289063 10.36929687 -4.875 11.125 C-5.33519531 11.86621094 -5.79539063 12.60742188 -6.26953125 13.37109375 C-9.73673231 18.86836615 -9.73673231 18.86836615 -12 20 C-10.78065514 15.96678237 -9.44045073 12.45730521 -7 9 C-6.34 9 -5.68 9 -5 9 C-4.9175 8.071875 -4.835 7.14375 -4.75 6.1875 C-4 3 -4 3 -1.9375 1.125 C-1.298125 0.75375 -0.65875 0.3825 0 0 Z " fill="#AB8179" transform="translate(159,281)"/>
<path d="M0 0 C0.66 0 1.32 0 2 0 C0.51637716 6.26418531 -3.24162156 10.91513505 -7 16 C-8.43088528 13.13822943 -7.59991697 11.06624227 -7 8 C-5.68 8 -4.36 8 -3 8 C-2.87625 7.4225 -2.7525 6.845 -2.625 6.25 C-1.99351176 3.97664233 -1.11141809 2.0746471 0 0 Z " fill="#AE847B" transform="translate(216,186)"/>
<path d="M0 0 C0.66 0 1.32 0 2 0 C1.67 1.32 1.34 2.64 1 4 C2.0725 3.649375 3.145 3.29875 4.25 2.9375 C7.78720743 2.05319814 8.74811124 1.97119449 12 3 C10.23050388 3.50471197 8.45934777 4.00360685 6.6875 4.5 C5.20830078 4.91765625 5.20830078 4.91765625 3.69921875 5.34375 C1 6 1 6 -2 6 C-1.34 4.02 -0.68 2.04 0 0 Z " fill="#9B7A73" transform="translate(53,226)"/>
<path d="M0 0 C-1.12451727 2.9719385 -2.22293791 5.33440687 -4 8 C-4.66 8 -5.32 8 -6 8 C-5.7215625 7.1028125 -5.7215625 7.1028125 -5.4375 6.1875 C-4.77906313 3.83591238 -4.77906313 3.83591238 -6 1 C-4 0 -4 0 0 0 Z " fill="#A98C83" transform="translate(247,140)"/>
<path d="M0 0 C0.68359375 1.703125 0.68359375 1.703125 1 4 C-0.21484375 6.359375 -0.21484375 6.359375 -1.9375 8.75 C-2.50339844 9.54921875 -3.06929687 10.3484375 -3.65234375 11.171875 C-4.09707031 11.77515625 -4.54179687 12.3784375 -5 13 C-5.33 12.34 -5.66 11.68 -6 11 C-5.22265625 8.8359375 -5.22265625 8.8359375 -4.0625 6.375 C-3.68222656 5.55773437 -3.30195313 4.74046875 -2.91015625 3.8984375 C-2.60980469 3.27195312 -2.30945313 2.64546875 -2 2 C-1.34 2 -0.68 2 0 2 C0 1.34 0 0.68 0 0 Z " fill="#AF817C" transform="translate(141,308)"/>
<path d="M0 0 C0.33 0.66 0.66 1.32 1 2 C-0.21484375 4.3828125 -0.21484375 4.3828125 -1.9375 7.125 C-2.50339844 8.03507813 -3.06929687 8.94515625 -3.65234375 9.8828125 C-4.09707031 10.58148438 -4.54179687 11.28015625 -5 12 C-5.66 11.67 -6.32 11.34 -7 11 C-5.68 8.36 -4.36 5.72 -3 3 C-2.34 3 -1.68 3 -1 3 C-0.67 2.01 -0.34 1.02 0 0 Z " fill="#AA827B" transform="translate(240,149)"/>
<path d="M0 0 C0.99 0.33 1.98 0.66 3 1 C0.525 5.455 0.525 5.455 -2 10 C-2.66 10 -3.32 10 -4 10 C-3.43454163 6.04179141 -2.19097652 3.3340947 0 0 Z " fill="#AF8780" transform="translate(125,109)"/>
<path d="M0 0 C2 2 2 2 2.125 5.125 C2.08375 6.07375 2.0425 7.0225 2 8 C0.68 8.33 -0.64 8.66 -2 9 C-1.34 6.03 -0.68 3.06 0 0 Z " fill="#B58F85" transform="translate(146,271)"/>
<path d="M0 0 C1 2 1 2 0.44140625 4.1640625 C0.15136719 4.97617187 -0.13867188 5.78828125 -0.4375 6.625 C-0.72496094 7.44226562 -1.01242188 8.25953125 -1.30859375 9.1015625 C-1.53675781 9.72804688 -1.76492187 10.35453125 -2 11 C-2.99 10.67 -3.98 10.34 -5 10 C-3.66511872 6.40608886 -2.03977277 3.24509304 0 0 Z " fill="#B3A29F" transform="translate(172,33)"/>
<path d="M0 0 C0 0.33 0 0.66 0 1 C-4.41225737 2.47075246 -7.48281619 3.36884358 -12 2 C-8.40939861 -1.59060139 -4.69614193 -1.20757935 0 0 Z " fill="#B1867D" transform="translate(190,156)"/>
<path d="M0 0 C-0.66 2.64 -1.32 5.28 -2 8 C-3.32 7.34 -4.64 6.68 -6 6 C-4.90218919 2.70656758 -3.7827394 0 0 0 Z " fill="#B8968B" transform="translate(164,60)"/>
<path d="M0 0 C-0.33 2.64 -0.66 5.28 -1 8 C-2.32 6.68 -3.64 5.36 -5 4 C-1.125 0 -1.125 0 0 0 Z " fill="#AC908B" transform="translate(169,42)"/>
<path d="M0 0 C0.33 0.66 0.66 1.32 1 2 C1.66 2.33 2.32 2.66 3 3 C1.35 5.31 -0.3 7.62 -2 10 C-3 8 -3 8 -2.44140625 6.0546875 C-2.15136719 5.33539063 -1.86132812 4.61609375 -1.5625 3.875 C-1.27503906 3.15054687 -0.98757812 2.42609375 -0.69140625 1.6796875 C-0.46324219 1.12539063 -0.23507813 0.57109375 0 0 Z " fill="#B3A59E" transform="translate(126,331)"/>
<path d="M0 0 C0.66 0 1.32 0 2 0 C2 1.65 2 3.3 2 5 C1.34 5 0.68 5 0 5 C-0.66 6.32 -1.32 7.64 -2 9 C-1.125 2.25 -1.125 2.25 0 0 Z " fill="#AC847B" transform="translate(155,246)"/>
<path d="M0 0 C0.99 0.66 1.98 1.32 3 2 C2.01 3.32 1.02 4.64 0 6 C-0.99 5.67 -1.98 5.34 -3 5 C-2.01 3.35 -1.02 1.7 0 0 Z " fill="#B89189" transform="translate(148,72)"/>
</svg>
